<svg xmlns="http://www.w3.org/2000/svg" viewBox="0 0 4588.84 1391.01"><path fill="#e5eef8" d="M2469.64 1294.82q68.25.67 128 2.5c-6-19.19-28.12-35.51-71.48-46.71-70.4-18.18-137-9.46-191.45 8.55 127.15-93.74 274.78-226.34 136.28-246.64-43.19-6.33-108.54 24-180.85 72.37 79.41-101.48 122.35-185.6 72.17-203.08-46.59-16.26-138.59 65.42-235.93 174.58 54.67-92.34 85.6-173.46 58.92-213.06-21.79-32.32-65.53 2.57-115.16 68.21.74-59.08-16.17-95.32-52.42-89.31-34.1 5.65-60.07 73.24-77.74 154.78-36.23-128.49-125.13-209.18-211.73-173.29-96.41 40-153.49 318.84-116.73 472.74 342.91 12.01 709.79 16.9 858.12 18.36z"/><path fill="#e5eef8" d="M1206.47 1257.06c161.94 10.86 366.63 18.8 566.62 24.53-6.26-172.67-306.84-321.65-415.2-389.46-104.79-65.59-82.26-192.56-155-14.21-6.45-119.81-26.44-221-69.4-234.63-45.68-14.53-74.86 34.69-85.79 119.54-51-102.22-100.55-159.39-135.24-116.59-42.46 52.43-18.8 173.81 33.34 315.15C841.86 789 739.29 656.85 675.75 672.58c-68.42 16.89-29.81 144.52 52.49 303C644.43 894.42 566 840.27 508.87 842.3c-183.26 6.56-19 220.77 126.63 375.92-66.85-34.7-151.21-58.06-245.93-43.45-85 13.09-113.86 49.14-105.68 95.51 187.93-28.95 536.74-39.1 922.58-13.22z"/><path fill="#c3e0fa" d="M2295.19 1103c-110.83-295.75 2.11-536.19 3.25-538.6l5.41 2.6c-1.14 2.39-112.94 240.66-3 533.9z"/><path fill="#c3e0fa" d="M2297.07 572.69s-3.05-19.14 5.92-36c3.23-6.11 13.43-14.24 19.13-11.24s6.17 13.25 1.46 22.16c-8.95 16.84-26.51 25.08-26.51 25.08zm-10.58 31.44s7.8-15.44 23.18-23.51c5.56-2.94 17.3-4 19.87.9s-2.41 12.63-10.52 16.89c-15.38 8.07-32.53 5.72-32.53 5.72zm-13.2 54.81s8-13.74 22-18.36c5.07-1.69 15.29-.11 17.12 5.41s-3.14 12.13-10.5 14.56c-13.99 4.62-28.62-1.61-28.62-1.61z"/><path fill="#c3e0fa" d="M2288.94 602.83s-15.64-2.35-25-13.54c-3.4-4.07-5.7-14.08-1.31-17.8s12.35-1.56 17.31 4.35c9.37 11.21 9 26.99 9 26.99zm-31.1 351.31s-15.89 3.09-30.24-3.91c-5.2-2.55-12.23-10.84-9.85-15.7s10.87-5.54 18.42-1.83c14.34 7.01 21.67 21.44 21.67 21.44zM2269.9 658s-17.66-4.11-29.15-17.78c-4.18-5-7.64-16.67-3-20.54s13.6-.68 19.67 6.53c11.46 13.66 12.48 31.79 12.48 31.79zm-13.58 58.56s-18-1.41-28.05-13.39c-3.65-4.32-5.53-15.51-.09-20.09s14.49-2.75 19.78 3.55c10.04 11.97 8.36 29.93 8.36 29.93zm4.6-.29s5.95-16.76 20.18-24.18c5.17-2.68 16.58-2.5 19.67 3.47s-.94 14.18-8.45 18.07c-14.24 7.37-31.4 2.64-31.4 2.64zm-1.03 240a48.51 48.51 0 019.4-29c3.74-5 14.32-12.09 19.41-10s4.5 10.14-.93 17.49c-10.3 13.92-27.88 21.51-27.88 21.51zm-11.15-123.7s6.7-9.59 21.34-13.84c5.3-1.53 16.8-1.45 19.67 1.92s-1.57 8.09-9.27 10.34c-14.64 4.24-31.74 1.58-31.74 1.58zm.26-54.51s-10.66-2.59-18.46-13.77c-2.82-4.07-5.77-14-3.39-17.55s7.93-1.33 12 4.58c7.85 11.18 9.85 26.74 9.85 26.74zm4.47 119.69s-.13-18.85 7.31-30.67c2.69-4.28 10.08-7.53 13.48-2.41s2.73 14.73-1.19 20.94a25.62 25.62 0 01-19.6 12.14z"/><path fill="#c3e0fa" d="M2250.12 834.78s-21.84-2.79-36.22-13.29c-5.21-3.82-9.62-13-4-16.13s16.79-.89 24.37 4.66c14.38 10.49 15.85 24.76 15.85 24.76zm1.1 65.65s-20.7-2.68-33.31-12.67c-4.57-3.62-7.79-12.31-2-15.29s16.28-.81 22.91 4.45a31.69 31.69 0 0112.4 23.51zm34.18 161.38a48.38 48.38 0 019.42-29c3.72-5.06 14.3-12.1 19.41-10s4.48 10.13-.93 17.47c-10.3 13.96-27.9 21.53-27.9 21.53zm-15.53-51.66s.74-11.68 11.18-22.85c3.76-4 13.75-9.82 18-8.38s2.92 7.8-2.57 13.68c-10.41 11.14-26.61 17.55-26.61 17.55zm15.13 53.93s-22 0-37.6-8.59c-5.65-3.12-11.2-11.63-6-15.5s16.57-3 24.77 1.54c15.57 8.6 18.83 22.55 18.83 22.55zm-15.44-52.67s-20-.07-32.64-8.08c-4.57-2.91-8.06-10.81-2.65-14.37s15.62-2.74 22.25 1.49a27.8 27.8 0 0113.04 20.96zm-18.83-229.5s5.32-13.87 20.44-24.8c5.48-3.94 18.07-8.54 21.9-5.75s0 10.06-8 15.8c-15.07 10.92-34.34 14.75-34.34 14.75zm262.36 58.43s-5.93-19.86 1.87-37.83c2.82-6.52 13.16-15.38 19.93-12.43s8.64 13.57 4.54 23c-7.78 18.01-26.34 27.26-26.34 27.26zm-10.79 30.88s9.26-15.6 25.28-20.93c5.81-1.93 17.51-.24 19.58 6s-3.63 13.74-12.07 16.54c-16.03 5.34-32.79-1.61-32.79-1.61zm-19.3 32.9s14.8-10.47 31.61-8.79c6.1.6 16.09 6.93 15.44 13.46s-8.92 11.05-17.78 10.18c-16.86-1.68-29.27-14.85-29.27-14.85zm18.47-32.27s-15.36-6.82-24-21.33c-3.13-5.27-4.8-16.58-.19-19.31s12.32 1.73 16.88 9.37c8.66 14.53 7.31 31.27 7.31 31.27z"/><path fill="#c3e0fa" d="M2485.08 905.31s-15.84-6.52-24.46-21c-3.14-5.25-4.59-16.69.28-19.59s12.82 1.44 17.37 9.1c8.63 14.46 6.81 31.49 6.81 31.49zm-30.63 41.22s-14.19-3.73-20.78-14.81c-2.39-4-2.55-13.32 2.32-16.21s11.88-.15 15.35 5.69c6.59 11.1 3.11 25.33 3.11 25.33zm1.78 1.04s10.67-9.05 24.38-9.74c5-.25 13.72 3.12 13.94 7.83s-5.88 8.81-13.1 9.17c-13.7.69-25.22-7.26-25.22-7.26z"/><path fill="#c3e0fa" d="M2369.88 1135.89a17.21 17.21 0 006 4.16l1.15-3.23-.58 1.61.59-1.61c-.31-.11-7.57-2.9-10.67-14.12-3.48-12.61-.4-30.26 9.12-52.49 13.09-30.5 38.12-68.76 74.42-113.75 42.17-52.24 54.39-86.72 62.48-109.53 2.07-5.85 3.87-10.9 5.77-15l-3.12-1.44c-2 4.26-3.79 9.39-5.89 15.31-8 22.6-20.11 56.73-61.91 108.52-80.82 100.14-90.35 147.45-84.12 169.51a27.27 27.27 0 006.76 12.06zM790.66 1317.15c11.81-18.16-2.88-33.59-59-41.8-61.22-9-119.72-2.87-167.85 8.23 113.51-55 245.85-132.23 125-141.17-37.68-2.78-95.62 15.46-160.05 44 71.87-58.5 111.42-106.59 67.87-115.52-40.43-8.3-122.88 39.28-210.63 102.43 50-52.92 79-99.11 56.5-120.89-18.33-17.79-57.44 2.62-102.42 40.44 2-33.26-12-53.33-43.85-49.3-30 3.78-54.29 42.27-71.64 88.45-28.77-71.61-104.76-115.4-181.43-93.67-90.05 25.53-17.71 197.22 22.58 278.84z"/><path fill="#c3e0fa" d="M325.53 1241.69l-4.11-1.23c29.24-97.9 81.91-241 166.83-366.51 50.86-75.18 89.75-108.87 90.14-109.2l2.79 3.25c-.38.33-38.95 33.76-89.51 108.54C445 945.57 378.31 1065 325.53 1241.69zm-21.79-37.98l-4.27-.35C316 999.48 418.85 824.21 419.89 822.46l3.68 2.2c-1.03 1.73-103.36 176.19-119.83 379.05z"/><path fill="#c3e0fa" d="M380.66 1222.9l-4.27-.37c8.34-98 49.84-160 83.19-194.87 36.18-37.77 70.95-52.56 71.29-52.71l1.66 4c-.34.14-34.43 14.68-70 51.87-32.81 34.27-73.65 95.45-81.87 192.08zm218.21-483.65c28.07 19.75 44.33 45 36.33 56.35s-37.24 4.58-65.31-15.18-44.32-45-36.31-56.36 37.23-4.57 65.29 15.19z"/><path fill="#588dbc" d="M589 753.3c8.91 6.27 14.08 14.29 11.53 17.89s-11.83 1.45-20.73-4.82-14.08-14.28-11.54-17.89S580.08 747 589 753.3z"/><path fill="#c3e0fa" d="M429.67 812.26c11.69 8.22 18.46 18.74 15.13 23.47s-15.51 1.9-27.19-6.32-18.45-18.73-15.12-23.41 15.51-2 27.18 6.26z"/><path fill="#588dbc" d="M425.56 818.11c3.71 2.61 5.86 5.95 4.8 7.46s-4.92.6-8.63-2-5.86-5.95-4.8-7.45 4.92-.62 8.63 1.99z"/><path fill="#c3e0fa" d="M542.09 968.3c11.77 14.16 16.66 29.52 10.93 34.29s-19.94-2.86-31.71-17-16.67-29.52-10.93-34.29 19.94 2.82 31.71 17z"/><path fill="#588dbc" d="M535 974.19c3.73 4.5 5.29 9.38 3.47 10.89s-6.34-.91-10.08-5.4-5.29-9.38-3.46-10.89 6.33.9 10.07 5.4z"/><path fill="#e5eef8" d="M1270.4 748L1118 922.31 653 515.62l406.7-464.88 180.53 157.89a32.14 32.14 0 011.61 3.84c0 .16.09.33.15.54a29.58 29.58 0 011 3.84 1.47 1.47 0 010 .29 28.42 28.42 0 01.25 7.3v1.23c-.11.8-.32 1.64-.48 2.42s-.37 1.77-.62 2.63a16.43 16.43 0 01-.74 2 26.81 26.81 0 01-1.33 3c-.3.56-.54 1.07-.87 1.57a30.26 30.26 0 01-3.07 4.3 29.93 29.93 0 01-24 10.06 101.26 101.26 0 1093.07 81.42A30.09 30.09 0 011312 308a28.86 28.86 0 013.85-3.59 17.85 17.85 0 011.44-1.06c.92-.64 1.87-1.22 2.81-1.77.65-.34 1.26-.65 1.9-.93.85-.39 1.67-.73 2.52-1s1.58-.57 2.34-.76a12.35 12.35 0 011.24-.24 26.9 26.9 0 017.23-.68 1.14 1.14 0 01.32 0 37 37 0 014 .4 3 3 0 00.54.11 34.35 34.35 0 013.93 1l180.59 158-152.51 174.24a29.78 29.78 0 0029.8 46.58 101.27 101.27 0 11-81.34 93 29.82 29.82 0 00-50.26-23.3z"/><path fill="#163f59" d="M1047.08 823.92L1199.91 997l-21.53 51s-57.55-22.6-105.64-73.18-25.66-150.9-25.66-150.9z"/><path fill="#194866" d="M1043.39 903.87c7.95 15.62 18.5 29.68 32.5 40.16 47.24 35.31 97.8 51.62 121.92 57.9l2.1-4.95-152.83-173.06s-8.62 38.58-3.69 79.95z"/><path fill="#163f59" d="M1204.24 1263.77c-14.32-43.44-43.29-118.67-47.56-147.22-7.92-52.85-4.19-90.79-4.19-90.79l50.44-25.14 33.07 259.12z"/><path fill="#194866" d="M1031.15 781.12l56.95 101.3-37.39 208.3L997.3 1056s-1.77-47.13-18.7-114.84c-21.36-85.45 52.55-160.04 52.55-160.04z"/><path fill="#194866" d="M977.81 1257.75c-2.56-45.67 6.42-122.33 9.7-151 6.07-53.1 20.47-69.44 20.47-69.44l50.75 5.34-41.19 219.45z"/><path fill="#194866" d="M991.61 1248.26l-7.37 20.93-2.51 18.71 5.31 7.23 4.7 3.51.45 3.47 13.79 18.74c4.13 3.93 10.67 7.58 19.81 8.65 3.12.35 2-8.91 1.41-10.46a152.69 152.69 0 00-9.34-19.47l-7.81-22.68-8.06-27.78z"/><path fill="#163f59" d="M1213 1252.73l-3.82 8.75-1.65 9.63 1.65 15 8.19.5 6-1.83 4.25 2.46s23.36 2.59 32 2.14c14.34-.74 22.06-2.88 24.63-5.89 1.44-1.67-5.48-4.13-7.71-4.29-12.86-.85-33.27-7.86-33.27-7.86l-11.48-10.93-2.74-8.21z"/><path fill="#fece40" d="M1196.74 709.53s-20.49 20.45 40.38 82.34 72.41 45.81 72.41 45.81l18.92-11 15-63.2-29.75-8.89-3.3 3.57s-6.44.18-9.59-4.55-23.36-21.32-52.25-60.8c-13.34-18.23-47.89 12.74-51.82 16.72z"/><path fill="#e9d6b8" d="M1338.44 766.81s62.41 3.12 68.51-60.61c1.81-19 6.43-.19 9.52 18.24s-9.21 68.94-42.93 87.25-48 22.4-60.75 13.13 25.65-58.01 25.65-58.01z"/><path fill="#9fc400" d="M1290.06 774.47l8.38-13.94 3.69-5.37c3.33 3.13 8.26 3 8.26 3l-8.26 9.11-7.66 12.62-4.53 19.71z"/><path fill="#e9d6b8" d="M1411.88 727.47s-16.36-8.1-17.45-13.2-3.85-24-3.85-24l-.25-4.91s5.24-3.34 7 9.41 4.28 6 4.28 6l2.85-12.18 4.65-14.69 1.24-6.76s.41-3.88 1.3-4.73c2.56-2.45 3.46.39 3.46.39l-2.58 26.69 9.07-24s1.67-2.9 3.39-2.63 1.3 1.27 1.3 1.27l-3.88 29.54 6.06-11.89s1.7-2.79 3.4-2.63c1.85.18 2.36.17 2.36.17l-17.08 49z"/><path fill="#e9d6b8" d="M1417.29 689.55l7.36-16.56s1.24-3.89 2.94-5.34a2.37 2.37 0 013.42 0l-8.65 26zm525.2 141.23l-128.47.77s.53 9.89 7 13.39c17.6 9.4 60.43 21.38 82.11 23.06 29.67 2.33 59.43-1.38 59.43-1.38z"/><path fill="#e9d6b8" d="M1829.8 848.81l-15.7.67a54.39 54.39 0 01-16.24-1.57c-8.78-2.25-11.75-9.58-11.19-18.38s3.6-12.57 3.6-12.57 10.68-3.67 16 4 26 16.29 24.36 19.76-.83 8.09-.83 8.09z"/><path fill="#e9d6b8" d="M1794.79 815.29l-17.48-1.33-16.3-.5 1.18 3.46 11.52 1.98 15.94 11.63 1.7-5.08 3.44-10.16z"/><path fill="#e9d6b8" d="M1773.94 825.19l-13.96 3.76.21 3.65 14.43-1.24 14.94 3.91 1.79-9.82-17.41-.26z"/><path fill="#e9d6b8" d="M1762.35 838.49l10.94-3.71 6.91-3.47 8.38 1.53 1.12 8.22-9.01-1.94-15.21 2.45-3.13-3.08z"/><path fill="#e9d6b8" d="M1768.34 848.4l18.31-9.91 5.87 1.5 1.08 5.59-9.85 1.39-12.1 2.87-3.31-1.44zm70.14-7.97c-9.28-.44-14.92-8.64-14.92-8.64s-14.56-20.07-20-20.59-14.22-6.72-14.22-6.72-4.92-.8.87 7.41a41.21 41.21 0 008.67 8.81s4.23 14.35 7.55 17.25c6.86 5.89 29.43 6.46 29.43 6.46s3.8-3.95 2.62-3.98z"/><path fill="#954f3f" d="M1992.96 820.1l-92 10.93-3.67 36.08 55.42 16.32 40.25-63.33z"/><path fill="#d1320b" d="M1974.16 833.74s49.81-38.17 66.77-48.28c11.86-7.08 45.63-19.37 45.63-19.37s10.81 17 9 27.85c-5.15 31.42-35.56 53.6-35.56 53.6l-107.32 35.89-6.68-22.74z"/><path fill="#479bff" d="M1850.85 712.08l174.27 152.42-406.69 464.94-464.88-406.69 157.88-180.54a32.85 32.85 0 013.84-1.61c.17 0 .34-.09.55-.14a28 28 0 013.84-1 2.47 2.47 0 01.29-.06 28.87 28.87 0 017.3-.24h1.23c.79.1 1.64.31 2.42.47s1.78.37 2.63.62a16.43 16.43 0 012 .74 28.69 28.69 0 013 1.33c.55.31 1.06.55 1.56.87a30.34 30.34 0 014.3 3.08 29.91 29.91 0 0110.06 24 101.27 101.27 0 1081.42-93.07 30.09 30.09 0 01-25.15-6.78 28.15 28.15 0 01-3.59-3.84c-.38-.47-.71-.93-1.06-1.44-.65-.93-1.22-1.88-1.77-2.82-.35-.65-.65-1.25-.94-1.9-.39-.84-.72-1.67-1-2.52s-.57-1.57-.77-2.34c-.14-.39-.12-.83-.23-1.23a26.61 26.61 0 01-.68-7.24.81.81 0 010-.31c0-1.31.21-2.62.4-4a4.13 4.13 0 00.11-.53 34.52 34.52 0 011-3.94l157.94-180.58 174.35 152.45a29.78 29.78 0 0046.58-29.74 101.27 101.27 0 1193 81.34 29.82 29.82 0 00-23.29 50.21z"/><path fill="#e9d6b8" d="M2092.04 767.3l-25.32-26.09-33.75 7.13 14.47 28.14 17.26 20.6 27.34-29.78z"/><path fill="#163f59" d="M1998.43 717.59a13 13 0 0015.82 9.4l47.7-12.06a13 13 0 009.4-15.84 13 13 0 00-15.82-9.43l-47.67 12.1a13 13 0 00-9.43 15.83z"/><path fill="#163f59" d="M2012.73 737.25a24 24 0 0029.27 17.41l24.87-6.31a24.08 24.08 0 0017.44-29.23 24.07 24.07 0 00-29.31-17.41l-24.88 6.29a24 24 0 00-17.39 29.22z"/><path fill="#e9d6b8" d="M2003.45 779.36L1985 706.43c-2.93-11.64 9.43-2.41 21.06-5.34l11.22-2.83a21.65 21.65 0 0126.31 15.74l13.16 51.9z"/><path fill="#e9d6b8" d="M2038.43 732.58a9.51 9.51 0 0011.57 6.91 9.55 9.55 0 006.91-11.61 9.58 9.58 0 00-11.58-6.9 9.56 9.56 0 00-6.9 11.6zM2003.77 755a5.42 5.42 0 01-3.84 6.64l-4.32 1.12a5.42 5.42 0 01-6.53-4.06s2.45-30.06 5.3-30.8a8.89 8.89 0 013.71 4.76z"/><path fill="#163f59" d="M2031.88 767.89c21-5.32 21.61-12.31 20.34-19.85 0 0 10.29 17 11.81 23l1.68 6.63c3.25 12.83-7.31 26.56-23.58 30.68l-29.45 7.48-8.28-32.72-1.94-7.74z"/><path fill="#163f59" d="M1999 761.8l16.82-4.25a14.46 14.46 0 0117.59 10.45 13.16 13.16 0 01.4 3.61l-30.36 7.71z"/><path fill="#e9d6b8" d="M2024.49 771l1.17 4.67a2.4 2.4 0 01-1.75 2.93l-13.63 3.45a2.38 2.38 0 01-2.94-1.73l-1.16-4.66z"/><path fill="#163f59" d="M1989 691.6l43.15-10.91a8.65 8.65 0 0110.53 6.29l4.29 16.82-51.57 13.08z"/><path fill="#163f59" d="M1965.39 711a13.12 13.12 0 0015.94 9.49l29.19-7.43a13.08 13.08 0 009.5-15.9 13.13 13.13 0 00-15.94-9.51l-29.19 7.35a13.13 13.13 0 00-9.5 15.94zm63.3-9.05l11.664-2.948 7.76 30.715-11.663 2.947z"/><path fill="#163f59" d="M1999.05 695.4l34.32-8.69 9.16 36.15-34.33 8.68-9.15-36.14z"/><path fill="#e9d6b8" d="M2034.61 725.36a17.91 17.91 0 00-21.75-13l-9 2.27c-9.6 2.43-12.77 11.51-10.35 21.09a17.93 17.93 0 0021.78 13l6.34-1.58a17.9 17.9 0 0012.94-21.79z"/><path fill="#081832" d="M2210.05 1384.75s12.61 5.08 18 6.09c4.47.85 12.59-1.73 16.61-3.35 3.68-1.49 9.55-4 11.82-8.28 3.24-6 9.25-25.71 9.25-25.71l3.54 2.66 6.95-13.38s-6.65-18.86-12.43-20c-7.74-1.49-25.44 18.68-25.44 18.68l-3.84 24.42-9.5 12s-8.59 1.27-10.91 1.92-4.05 4.95-4.05 4.95zm-258.49-18.65l-14.84 23.47-20.72-11.14 1.69-6.64-10-4.41-14.2-3.69-39-36.8s1.82-4.44 4.06-4.66c6.45-.71 23.2 13 23.2 13l33.58 7.9z"/><path fill="#163f59" d="M2104.31 1108.25l12.96 70.34 114.06 174.59 37.62-28.46-94.75-171.95 5.37-138.39-75.26 93.87z"/><path fill="#194866" d="M2127.85 941.46s-98 215.29-127 264.86-101.22 129.62-101.22 129.62l54.29 34s123.31-162.49 153.18-220.73 83.9-118.39 83.9-118.39 50.64-25.53 41.76-89.8-104.91.44-104.91.44z"/><path fill="#ff3d0d" d="M2039.87 816.62l65.8 166.31 135.81-30.76s-21.45-58.46-31.95-76.27c-40.77-69.14-104.88-118.32-104.88-118.32s-33.79-24.17-64.78 59.04z"/><path fill="#954f3f" d="M2075.84 748.6l11.17 7-38.28 42.41-3.27-13.45 30.38-35.96z"/><path fill="#e9d6b8" d="M2022.05 888.25l-106.54 71.83s5.93 7.93 13.25 7.23c19.87-1.89 62.13-15.65 81.14-26.24 26-14.53 48.69-34.09 48.69-34.09z"/><path fill="#e9d6b8" d="M1937.75 957.8l-8.58 10.66a41 41 0 01-10.46 9.44c-6.62 4.13-13.45.87-19.28-5.73s-6.69-11.23-6.69-11.23 3.61-9.51 12-7.57 26.32-5.32 27.81-1.83a18.57 18.57 0 005.2 6.26z"/><path fill="#e9d6b8" d="M1894.18 956.82l-10.99 10.43-9.74 10.23 3.1 1.66 7.99-6.07 17.32-2.13-2.55-4.71-5.13-9.41z"/><path fill="#e9d6b8" d="M1889.07 977.36l-5.4 11.72 2.66 2.45 7.45-10.24 11.35-6.92-5.82-8.14-10.24 11.13z"/><path fill="#e9d6b8" d="M1891.69 994.33l3.69-9.76 1.56-6.93 5.92-4.38 6.36 5.09-6.52 4.47-7.04 11.62-3.97-.11z"/><path fill="#e9d6b8" d="M1902.06 997.42l3.62-18.9 4.43-2.74 4.53 3.23-4.72 7.39-4.96 9.89-2.9 1.13zm34.84-51.21c-5.64 5.74-14.6 3.61-14.6 3.61s-22.42-4.74-25.9-1.62-12.87 4.5-12.87 4.5-3.37 2.65 5.67 4.67a34.77 34.77 0 0011.15.6s12.45 7.41 16.37 7.28c8.06-.28 21.47-14.54 21.47-14.54s-.58-5.23-1.29-4.5z"/><path fill="#d1320b" d="M2048.08 859.27l-70.52 60.1 16.95 32.05 55.15-17.1-1.58-75.05z"/><path fill="#d1320b" d="M2040 881.08s20.31-59.39 28.82-77.19c6-12.47 27.26-41.41 27.26-41.41s18.42 8.13 23 18.17c13.1 29 .1 64.35.1 64.35l-69.48 89.32-18.18-15.21z"/><path fill="#f3aa06" d="M1097.33 884.8L984 853s60.4-112.57 85.46-146.89c20.44-28 83.8-92.77 126.41-57s58.57 47.36 58.57 47.36 6.69 49.24-157.11 188.33z"/><path fill="#e9d6b8" d="M1282.3 591.49s-19.74 74.72-39.14 77.13c-.84.1-12.61-3.71-20.69-.52-7.63 3-10 8.7-12.9 10.24-.93.5-2.43 1.84-4.48 2.31-9.91 2.27-16.87-23.85-16.83-27.92 0-2.8-4.47-5.64-1.34-8 6.69-5.07 13.1-11.41 14.66-17 4.59-16.27-1.59-51.82 32.59-59.28 9.99-2.16 47.9 17.67 48.13 23.04z"/><path fill="#fece40" d="M1212.29 674.77l-11.01 13.35-19.56-44.34 7.55-2.61 23.02 33.6z"/><path fill="#dbc9ad" d="M1243.72 667.61s-1.79-2.08-4.82-6.28c-1-1.4-4-5.42-6-6.93-8.65-6.65-8.73-5.6-13.18-10.67-5.08-5.76-13.34-20.06-13.34-20.06s1.14 8.81 1.54 12.35a21.74 21.74 0 007.24 13.89c14 13.21 12.48 14 14.73 15 .17.02 1.64-.15 13.83 2.7z"/><path fill="#e9d6b8" d="M1270.39 620.66c-.55 1.29-.19 14.58-.12 17s.25 5.6-.42 6.21a24 24 0 01-4.95 2.39c-1.27.43-6.24 2.33-4.82-3.41s10.31-22.19 10.31-22.19z"/><path fill="#163f59" d="M1234.14 564.94c17.28-5.49 43.12 7.4 54.9 31.78 0 0-2.34 4-10 5.1 0 0-5.52-17.77-23.62-22.3-19-4.75-9.76 8.77-15.68 11.62-5 2.4-9.48 4.32-9.48 4.32l-6.56 9.12-5-1.27s1.54-11.85-2.09-9.54c-4.41 2.8-6.17 11.46-6.52 12.66s-.93 3.17-1.62 3.28c-.54.09-1.59 6.84-6.91 16.93-2.25-.8-3.87-4.94-2.7-12.17 2.62-16.24 14.14-42.82 35.28-49.53z"/><path fill="#e9d6b8" d="M1217.84 593.47a7.92 7.92 0 00-6.2 14.58"/><path fill="#dbc9ad" d="M1256.74 638.75s9.45 1.12 10.25 1.69 2.91 1.69 2.64 2.59-2.46 2.62-7.66 3.41c-1.27.19.17-1.79-5.23-7.69z"/><path fill="#e9d6b8" d="M1228.16 853.59l129.1 48.47s-4.22 9.76-12 10.86c-21.22 3-68.79-.88-91.25-7.22-30.73-8.68-59.34-23.46-59.34-23.46z"/><path fill="#fece40" d="M1196.51 733l32.71 110.35-4.6 7.22 7.76 3.41-32.17 32.46-36.61-17.9L1121.67 717s-1.21-37.14 32.86-67.31c24.69-21.87 38.92 74.37 41.98 83.31z"/><path fill="#f3aa06" d="M1183.46 867.27s28.54-12.7 43.16-19.84l-2 3.15 7.77 3.41-11.22 11.14-18.26 13.43-7.9-5.12 4.43-5.22z"/><path fill="#e9d6b8" d="M1335 913.58l15.58 6.49a57.72 57.72 0 0016.94 4.46c9.68 1 15.38-5.29 18.08-14.36s1-14 1-14-9.39-7.67-17.58-1.91-32.18 6.75-31.86 10.85-2.16 8.47-2.16 8.47z"/><path fill="#e9d6b8" d="M1382.68 892.82l18.09 5.14 16.61 5.55-2.49 3.04-12.32-2.29-20.39 5.82.18-5.77.32-11.49z"/><path fill="#e9d6b8" d="M1400.01 910.5l12.64 8.99-1.55 3.6-14.09-6.6-16.5-1.6 1.85-10.58 17.65 6.19z"/><path fill="#e9d6b8" d="M1406.72 928.22l-9.61-7.79-5.69-6.06-9.02-1.57-4.16 7.87 9.77 1.39 14.42 8.1 4.29-1.94z"/><path fill="#e9d6b8" d="M1397.02 935.98l-14.76-16.77-6.46-.68-3.17 5.22 9.39 5.06 11.12 7.4 3.88-.23zm-67.69-34.06c9.52 3 18.24-3.15 18.24-3.15s22.11-14.83 27.75-13.35 16.82-1.48 16.82-1.48 5.24 1-3.63 7.15a43.89 43.89 0 01-12 5.64s-9.6 12.9-14 14.55c-9.09 3.4-32-4.38-32-4.38s-2.4-5.37-1.18-4.98z"/><path fill="#fece40" d="M1217.96 670.76l2.08-1.49-1.41 9.17-7.01 12.01-.66-16.35 7-3.34z"/><path fill="#e5eef8" d="M2957.81 401.64c-19.15-15.66-45.1-22.29-70-20.05-7.22.58-14.65-1.3-20-5.78-8.95-7.45-8.88-19.08-.35-26.71l134-102.83-128-98c-7.14-6.8-6.37-16.79 2.49-23.33 5.23-3.77 12.18-5.36 18.82-4.89 22.77 2 46.84-3.54 65.47-17.1 30.7-22.89 30.67-58.78.66-80-29.2-20.75-76.51-20-107.31 1.84-17.68 12.84-25.52 30.13-23.41 46.72.53 4.86-1.77 10-7.23 14-8.62 6.09-21.45 6.49-29.95 1.29L2679.54 0l-328.73 244.3 309.09 267 114-90.34c10-6.67 24.59-6.19 33.43 1.48a17.71 17.71 0 016.24 16.67c-4.16 20.4 2.82 42.18 21.53 58.61 32.34 28.39 86.71 29.84 121.84 2.55 34.06-27.15 34.06-71.38.87-98.63z"/><path fill="#e7eff8" d="M3638.87 1021.9a11.83 11.83 0 00-2.28-1.79 17.14 17.14 0 00-2.28-1.37c-1.38-.69-2.86-1.23-9.94-2.34a33 33 0 00-3.34.21 20.3 20.3 0 00-13.79 7.83 14.4 14.4 0 00-1.68 3 53.39 53.39 0 01-6 10.86c-7.84 11-20.24 20-36 24.65-35.61 10.48-74-5-85.37-34.38-6.22-16.13-2.91-32.94 7.19-46.37 8.09-10.72 20.56-19.3 36.09-23.68 20.22-5.72 41.3-3 57.73 5.76a23.19 23.19 0 0016.82 1.66 23.52 23.52 0 004.1-1.67c.63-.36 1.2-.72 6.24-5.31a15 15 0 001.51-2.68 14.08 14.08 0 00.8-2.3 16.42 16.42 0 00.37-2.19l-49.53-116.33-140.68 37.95c-9.64 1.74-19.23-2.37-22.09-9.86-1.67-4.41-.59-9 2.73-13.06.59-.66 1.16-1.32 1.7-2 10-12.4 13.48-27.7 7.82-42.2-10.12-25.92-45.58-39.69-79.48-31-15.23 3.92-27.69 11.66-36 21.4-10.41 12.19-14.37 27.49-9.13 42.22 5.55 15.64 20.24 27 38.42 32 5.27 1.52 9.59 4.84 11.3 9.43s.49 9.1-2.58 12.86a20.92 20.92 0 01-9.08 6.22l-148.21 40 117.07 328 401.94-117.79z"/><path fill="#eaf1fa" d="M4512.16 1102a17.2 17.2 0 00-1.89-.87c-.49-.19-1-.38-1.81-.64-1-.26-2-.42-6.32-.34-.39.11-.8.2-1.77.52a9.23 9.23 0 00-1.58.85c-2.6 1.82-3.45 4.83-2.77 8 2.6 11.06-.42 21.66-9.56 28.2s-22 7.67-34.94 4.15a64 64 0 01-27.73-15.9c-18.37-18-19.43-41.35-2.78-52 9.26-5.9 22.05-6.61 35.72-2.63 3.71 1.07 7.47.91 10.08-.81a7.88 7.88 0 001.67-1.56c.22-.28.38-.58 1.37-3.49a8.47 8.47 0 00-.12-2.57 11.26 11.26 0 00-.47-1.61 11.45 11.45 0 00-.64-1.45l-74.75-72.31-70.63 39.93a15.65 15.65 0 01-9.8.08 19.81 19.81 0 01-8.26-4.77c-3-3-4.28-6.45-3.79-9.4 1.77-10.07-2.45-21.77-12.84-31.93a67.62 67.62 0 00-27.64-16c-13.45-4.05-27.68-3.93-38.54 1.4-19.49 9.55-20.76 32.19-2.36 50.38a68.89 68.89 0 0040.14 18.74 20.11 20.11 0 0111.57 5.45c5.05 5 5.29 11.22.88 14.69l-83.66 47.3 219.06 219.5 180.81-146.77z"/><path fill="#e9f1f9" d="M4068.68 251.59c-7.19-2.14-10.78-7.5-7.95-12.53 1.72-3.07 5.47-5.28 9.88-6.3 15.21-3.37 28-10.95 33.76-21.36 9.85-17.74-4.37-36.92-31.69-43s-58 3.24-68.28 21c-6.05 10.4-3.69 21.37 4.8 29.93 2.41 2.53 3.11 5.71 1.36 8.78-2.9 5-11.13 7.82-19 6.69L3875 209.42l-46.23 76c-3.79 5.1-13 7.83-21.17 6.07-4.92-1-8.34-3.5-9.74-6.42-4.65-10.09-16.41-18.49-33.32-22.12-29-6.21-62.31 3.94-74.39 22.85-12.18 19.07 1.85 39.7 31.36 45.92a87.71 87.71 0 0050.52-4.67 25.78 25.78 0 0114.61-1.32c8.29 1.75 12.43 7.39 9.79 12.86l-49 80.65L4072 486.5l111.16-210z"/></svg>